<?xml version="1.0" encoding="UTF-8"?>
<svg id="Layer_2" data-name="Layer 2" xmlns="http://www.w3.org/2000/svg" viewBox="0 0 744.8 411.96">
  <defs>
    <style>
      .cls-1 {
        fill: #fff;
      }
    </style>
  </defs>
  <g id="Layer_1-2" data-name="Layer 1">
    <g>
      <path class="cls-1" d="M364.71,148.14c4.79-4.18,7.71-9.79,9.27-16.09,3.16-12.75.41-26.39-12.79-28.85-14.49-2.71-26.26,4.58-36.1,14.93-6.37,6.5-11.24,13.67-16.21,21.3-6.45,9.91-11.2,20.26-17.07,30.84l13.06-64.25c.22-1.09.14-2.09-.45-2.75-.42-.46-1.41-.87-2.49-.63l-64.22,14.01c-1.47.32-1.78,2.42-1.53,3.36.86,3.24,9.43,3.97,12.96,12.77,2.61,6.5,2.71,13.28,1.32,20.11l-6.88,33.62-8.04,37.5-21.41,102.44c-.31,1.5.56,3.17,2.18,3.17l41.5.1c1.34,0,2.4-.88,2.68-2.24l10.08-49.32,9.88-43.66c3.59-12.61,8.46-24.28,13.71-36.27,5.26-12.02,11.06-23.28,18.3-34.45,3.48-5.36,7.56-9.77,12.65-13.1,8-5.23,11.1-4.28,17.96-.41,7.32,4.13,15.3,3.41,21.65-2.13Z"/>
      <path class="cls-1" d="M227.28,134.31l6.12-29.28c.42-1.99-1.04-2.6-2.52-2.8-13.81-1.87-27.3,1.19-38.94,8.74l-11.48,7.44c-8.1-7.5-17.58-11.79-28.18-13.76-21.23-3.95-42.83-1.54-61.81,8.89-24.26,13.35-40.38,37.12-45.1,64.29-2.16,12.38-2.3,24.36,1.33,36.41,3.57,11.84,10.25,21.74,20.48,29.36-13.87,7.06-28.42,16.85-35.13,30.87-6.63,14.85-1.54,29.38,12.2,38.72l-18.24,10.38c-7.21,4.73-13.49,10.43-18.56,17.33-9.61,13.09-10.14,32.03-.33,44.93,5.28,6.94,12.02,12.25,20.02,15.91,10,4.58,20.24,7.29,31.26,8.69,14.41,1.83,28.56,2.03,43.08.53,29.33-3.04,57.14-14.46,74.42-39.03,9.26-13.15,12.85-29.5,9.25-45.18-3.75-16.35-17.43-25.01-32.83-29.64-9.52-2.87-18.87-4.91-28.72-6.68l-37.76-6.77c-4.67-.84-8.69-2.56-12.8-4.79-5.18-2.83-7.62-8.81-5.09-14.43,2.86-6.36,8.41-11.17,15.09-13.49,28.11,10.45,60.72,5.07,83.69-14.15,14.62-12.23,24.41-28.24,29.49-46.52,4.34-15.61,4.89-31.48.45-47.09-1.09-3.83-2.29-7.23-4.32-10.68,5.81-1.15,11.47-2.13,17.05-.62l15.02,4.07c1.25.34,2.59-.38,2.86-1.65ZM143.51,344.38c3.53,6.21,3.83,13.78,1.42,20.55-3.76,10.54-11.33,18.74-21.38,23.66-15.29,7.49-35.63,9.03-52.26,5.51-7.84-1.65-15.1-5.02-20.96-10.54-11.17-10.51-13.88-26.42-9.27-40.91,2.59-6.16,6.24-11.51,11.33-15.72l7.79-6.45c16.9,4.35,33.86,7.2,51.21,9.95,10.75,1.71,26.95,4.83,32.12,13.95ZM154.1,175.55c-1.9,13.56-4.99,26.49-10.64,38.9-6.09,13.36-16.52,27.12-32.02,26.4-8.53-.4-15.32-6.1-18.71-13.7-2.95-6.62-4.39-13.31-4.76-20.78-1.05-20.9,2.84-41.8,11.38-60.86,3.28-7.32,7.52-13.53,13.04-19.04,6.18-6.16,14.28-9.58,23.02-8.57,6.54.75,11.7,4.6,14.84,10.28,6.99,12.66,5.91,32.68,3.85,47.37Z"/>
      <path class="cls-1" d="M743.38,154.96c-2.53-18.8-10.19-40.81-28.35-48.54-14.61-6.21-31.23-4.5-44.85,3.25-7.86,4.57-14.73,9.56-21.25,15.8-9.34,8.98-16.37,19.16-24.34,30.02l23.47-112.21,8.79-40.28c.22-.97-.31-2.01-.76-2.44-.45-.43-1.3-.68-2.19-.5l-43.37,8.54-20.52,3.96c-1.49.28-2.47,1.32-2.53,2.66-.14,3.24,7.13,4.63,10.61,10.61,5.02,8.62,2.72,23.13.51,33.76l-11.02,52.98-22.58,107.89-13.63,65.8-8.49,42.76c-.44,2.18,3.95,2.62,5.49,1.8l26.13-13.92,11.12,6.43c10.61,5.59,21.79,9.34,34.17,10.32,14.22,1.12,27.92-.9,40.89-5.97,27.1-10.58,48.05-34.58,61.59-59.91,17.64-32.97,26.11-75.72,21.11-112.81ZM598.66,290.93c.07-7.84.56-15.26,2.2-23.04l10.96-52c4.14-19.66,16.33-41.94,29.21-57.31,5.58-6.65,11.86-12.27,19.15-16.85,7.79-4.89,19.11-6.7,25.87-1.36,9.09,7.17,10.78,20.65,11.24,32.17.76,18.9-1.49,37.26-5.39,55.73-4.85,22.94-11.11,44.4-24.1,64.05-10.99,16.64-24.81,28.86-45.74,26.04-13.86-1.86-23.51-13.48-23.4-27.43Z"/>
      <path class="cls-1" d="M538.9,278.58l-2.92-1.14c-1.39-.54-2.58-.06-3.49,1.14-6.01,7.94-23.23,26.72-29.72,19.29-2.93-3.36-.02-17.55,1.55-25.02l19.89-94.52,15.44-73.32c.33-1.57-1.95-2.43-2.98-2.24-1.88.33-3.21.87-4.87,1.67l-26.27,12.66-7.14-4.1c-6.65-3.82-13.47-6.84-21.12-8.25-11.78-2.17-23.6-1.92-35.11,1.53-20.66,6.19-38.82,20.9-52.57,37.4-19.76,23.71-32.88,51.88-39.34,82.04-5.05,23.56-7.38,46.69-1.65,70.18,1.42,5.81,3.4,11.07,6.13,16.24,12.62,23.91,41.13,27.36,63.47,14.09,17.78-10.56,31.28-30.54,41.17-48.62l-2.69,20.6c-1.17,11.31-.47,23.21,8.07,30.44,10.44,8.83,26.16,5.14,37.51-1.86,16.31-10.08,28.78-27.62,38.27-44.12.99-1.73-.06-3.47-1.63-4.09ZM462.9,118.78c9.52.53,16.64,6.84,18.8,16.02,3.68,15.63-2.43,43.83-6.45,60.9-7.03,29.84-18.07,62.59-37.93,86.1-9.18,10.85-25.76,21.47-36.77,10.01-6.97-7.27-8.65-19.07-9.04-29.38-.75-19.94,1.98-39.28,7.32-58.48,6.12-21.99,15.59-46.12,29.44-64.12,8.26-10.75,20.77-21.82,34.63-21.05Z"/>
    </g>
  </g>
</svg>